<svg xmlns="http://www.w3.org/2000/svg" width="916.219" height="122.875" viewBox="0 0 916.219 122.875">
 
<defs>
    <style>
      .cls-1 {
        fill-rule: evenodd;
      }
    </style>
  </defs>
  <path id="lucasahlgren" class="cls-1" d="M41.781,135h6.5V38.536h-6.5V135Zm93.341-67.862v36.141c0,16.12-9.491,26.391-24.831,26.391-14.171,0-22.361-8.061-22.361-23.4V67.138h-6.5v39.652c0,18.981,11.05,28.731,28.341,28.731,11.96,0,21.191-5.59,25.611-15.081V135h6.24V67.138h-6.5Zm67.468,68.383c10.79,0,20.15-4.29,25.741-12.48l-4.811-3.511c-4.94,6.891-12.48,10.141-20.93,10.141-15.991,0-27.691-11.441-27.691-28.6s11.7-28.6,27.691-28.6c8.45,0,15.99,3.25,20.93,10.14l4.811-3.51c-5.591-8.32-14.951-12.48-25.741-12.48-19.891,0-34.322,14.171-34.322,34.452C168.267,121.219,182.7,135.52,202.589,135.52Zm74.618-68.9c-10.53,0-20.41,3.64-27.171,9.62l3.251,4.68a35.222,35.222,0,0,1,23.4-8.58c13.261,0,20.151,6.76,20.151,19.371v5.46H273.567c-18.85,0-25.351,8.71-25.351,18.98,0,11.571,9.231,19.371,24.441,19.371,11.831,0,20.151-4.81,24.441-12.61V135h6.24V91.968C303.338,75.2,293.978,66.617,277.207,66.617Zm-3.64,63.573c-11.96,0-18.85-5.46-18.85-14.3,0-7.8,4.94-13.65,18.98-13.65h23.141v12.74C292.938,124.73,285.008,130.19,273.567,130.19Zm80.209,5.33c17.291,0,26.781-7.54,26.781-18.591,0-25.871-44.981-11.44-44.981-31.851,0-7.28,5.85-12.741,19.11-12.741,7.281,0,14.691,1.95,20.411,6.11l2.99-5.2c-5.33-4.03-14.69-6.63-23.271-6.63-17.16,0-25.741,8.32-25.741,18.591,0,26.651,44.982,12.09,44.982,31.851,0,7.671-5.72,12.741-20.021,12.741-10.01,0-19.24-3.77-24.441-8.191l-2.99,5.2C331.935,131.75,342.6,135.52,353.776,135.52Zm75.66-72.153c-11.05,0-23.011,2.86-31.071,8.19l8.32,16.771c4.81-3.77,12.351-6.11,19.111-6.11,9.75,0,14.561,4.03,14.951,11.18H426.706c-21.841,0-31.331,8.061-31.331,21.061,0,12.221,9.36,21.711,26.261,21.711,10.27,0,17.291-3.51,20.8-10.27V135h23.011V95.869C465.448,73.508,452.317,63.367,429.436,63.367Zm-0.91,57.2c-5.85,0-9.23-2.99-9.23-7.15,0-4.29,2.86-7.15,10.79-7.15h10.661v6.11C438.8,117.969,433.986,120.569,428.526,120.569Zm104.91-57.2c-8.321,0-15.731,2.6-21.191,7.67v-32.5h-24.7V135h24.7V100.939c0-11.7,6.11-16.641,14.04-16.641,7.151,0,11.571,4.29,11.571,14.43V135h24.7V94.7C562.557,72.858,549.946,63.367,533.436,63.367ZM584.524,135h24.7V38.536h-24.7V135Zm99.45-70.463v8.58c-4.81-6.63-12.35-9.75-22.1-9.75-18.72,0-34.581,13.26-34.581,33.931,0,20.8,15.861,34.061,34.581,34.061,8.971,0,16.121-2.73,20.931-8.32v2.34c0,11.05-5.59,17.03-18.851,17.03-8.32,0-17.94-2.86-23.791-7.54l-8.97,17.291c8.58,6.11,21.451,9.23,34.971,9.23,26.261,0,41.342-12.61,41.342-39.261V64.537H683.974Zm-16.25,47.192c-8.841,0-15.471-5.85-15.471-14.43S658.883,83,667.724,83s15.34,5.72,15.34,14.3S676.564,111.729,667.724,111.729Zm85.667-38.741v-8.45H729.86V135h24.7V102.629c0-12.351,6.891-17.421,16.9-17.421a44.981,44.981,0,0,1,5.59.39V63.367C766.652,63.367,758.461,66.617,753.391,72.988ZM865.064,99.9c0-23.271-16.9-36.531-37.7-36.531-22.231,0-38.741,15.081-38.741,36.271,0,21.06,16.25,36.531,41.341,36.531,13.391,0,23.271-3.9,30.032-11.44l-13-13.521a22.577,22.577,0,0,1-16.251,6.11c-9.1,0-15.21-4.16-17.29-11.31h51.222C864.8,104.059,865.064,101.719,865.064,99.9ZM827.492,80.918c7.671,0,13.131,4.68,14.431,12.09H813.062C814.492,85.6,819.822,80.918,827.492,80.918Zm101.4-17.551c-8.841,0-16.771,2.99-22.361,8.84v-7.67H883V135h24.7V100.939c0-11.7,6.11-16.641,14.04-16.641,7.151,0,11.571,4.29,11.571,14.43V135h24.7V94.7C958.014,72.858,945.4,63.367,928.893,63.367Z" transform="translate(-41.781 -38.531)"/>
</svg>
